<svg xmlns="http://www.w3.org/2000/svg" width="980" height="520" viewBox="0 0 980 520">
  <defs>
    <style>
      .box { fill: #f8fafc; stroke: #334155; stroke-width: 1.4; rx: 8; }
      .accent { fill: #eef6ff; stroke: #2563eb; stroke-width: 1.6; rx: 8; }
      .label { font-family: Arial, sans-serif; font-size: 16px; fill: #111827; }
      .small { font-family: Arial, sans-serif; font-size: 13px; fill: #374151; }
      .title { font-family: Arial, sans-serif; font-size: 22px; font-weight: 700; fill: #111827; }
      .arrow { stroke: #475569; stroke-width: 1.7; marker-end: url(#arrowhead); fill: none; }
    </style>
    <marker id="arrowhead" markerWidth="10" markerHeight="7" refX="9" refY="3.5" orient="auto">
      <polygon points="0 0, 10 3.5, 0 7" fill="#475569"/>
    </marker>
  </defs>

  <rect width="980" height="520" fill="#ffffff"/>
  <text x="40" y="48" class="title">SQV Data Preparation and File Structure</text>

  <rect x="40" y="85" width="170" height="78" class="box"/>
  <text x="62" y="116" class="label">Original SQV</text>
  <text x="62" y="140" class="small">.mat signal files</text>

  <rect x="270" y="85" width="190" height="78" class="box"/>
  <text x="292" y="112" class="label">Prepare script</text>
  <text x="292" y="137" class="small">scripts/prepare_sqv.py</text>

  <rect x="520" y="85" width="190" height="78" class="box"/>
  <text x="542" y="112" class="label">Segmentation</text>
  <text x="542" y="137" class="small">length 3200, overlap 512</text>

  <rect x="770" y="85" width="170" height="78" class="box"/>
  <text x="792" y="112" class="label">Sample selection</text>
  <text x="792" y="137" class="small">first 50 and last 50</text>

  <path d="M210 124 H270" class="arrow"/>
  <path d="M460 124 H520" class="arrow"/>
  <path d="M710 124 H770" class="arrow"/>

  <rect x="170" y="235" width="260" height="118" class="accent"/>
  <text x="192" y="266" class="label">SQV_x.npy</text>
  <text x="192" y="293" class="small">shape: N x 3200</text>
  <text x="192" y="318" class="small">one row = one vibration segment</text>

  <rect x="550" y="235" width="260" height="118" class="accent"/>
  <text x="572" y="266" class="label">SQV_y.npy</text>
  <text x="572" y="293" class="small">shape: N x 3</text>
  <text x="572" y="318" class="small">columns: class, domain, position</text>

  <path d="M855 163 C855 205, 300 190, 300 235" class="arrow"/>
  <path d="M855 163 C855 205, 680 190, 680 235" class="arrow"/>

  <rect x="135" y="410" width="210" height="70" class="box"/>
  <text x="157" y="438" class="label">DataLoader input</text>
  <text x="157" y="462" class="small">batch x 1 x 3200</text>

  <rect x="420" y="395" width="270" height="95" class="box"/>
  <text x="442" y="423" class="label">Label columns</text>
  <text x="442" y="448" class="small">0: class label, range 0 to 6</text>
  <text x="442" y="469" class="small">1: domain label, file or condition id</text>
  <text x="442" y="490" class="small">2: position label, default 0</text>

  <path d="M300 353 V410" class="arrow"/>
  <path d="M680 353 C680 375, 555 370, 555 395" class="arrow"/>
</svg>
